<?xml version="1.0" encoding="UTF-8" standalone="no"?>
<!-- Created with Inkscape (http://www.inkscape.org/) -->

<svg
   width="592.76251"
   height="566.68182"
   viewBox="0 0 592.76251 566.68182"
   version="1.1"
   id="SVGRoot"
   sodipodi:docname="meteor.svg"
   inkscape:version="1.4 (e7c3feb100, 2024-10-09)"
   xml:space="preserve"
   inkscape:export-filename="meteor.png"
   inkscape:export-xdpi="96"
   inkscape:export-ydpi="96"
   xmlns:inkscape="http://www.inkscape.org/namespaces/inkscape"
   xmlns:sodipodi="http://sodipodi.sourceforge.net/DTD/sodipodi-0.dtd"
   xmlns="http://www.w3.org/2000/svg"
   xmlns:svg="http://www.w3.org/2000/svg"><sodipodi:namedview
     id="namedview2267"
     pagecolor="#424242"
     bordercolor="#111111"
     borderopacity="1"
     inkscape:showpageshadow="0"
     inkscape:pageopacity="0"
     inkscape:pagecheckerboard="false"
     inkscape:deskcolor="#202020"
     inkscape:document-units="px"
     showgrid="false"
     inkscape:zoom="0.5"
     inkscape:cx="403"
     inkscape:cy="527"
     inkscape:window-width="1920"
     inkscape:window-height="1006"
     inkscape:window-x="0"
     inkscape:window-y="0"
     inkscape:window-maximized="1"
     inkscape:current-layer="layer2" /><defs
     id="defs2262" /><g
     inkscape:groupmode="layer"
     id="layer2"
     inkscape:label="Camada 2"
     transform="translate(-718.91982,-274.30676)"><path
       id="path1"
       style="fill:#3c3c3c;stroke-width:1.3194;stroke-linecap:round"
       d="m 1125.6515,274.30676 c -27.0827,11.05859 -36.091,9.54841 -65.2481,7.17578 -70.04032,-5.69946 -128.54427,20.71489 -190.84487,33.87786 -18.8311,3.97865 -43.9453,-8.62227 -57.6732,4.65273 -11.3547,10.98012 6.8749,32.43544 2.768,47.83269 -7.6306,28.60807 -42.4693,29.5142 -65.9843,40.92262 -15.6834,7.60886 -26.6717,-10.49391 -29.2316,6.5724 -4.3748,29.16556 20.5761,67.28656 15.1222,96.4874 -3.0001,16.06284 -18.318,-4.41131 -12.5435,12.02885 12.7374,36.26344 18.64609,74.44584 29.9217,111.32807 8.95651,29.29653 -0.33874,67.82059 10.34832,94.87194 10.97114,27.7704 42.03136,44.01569 59.59768,70.0602 10.1194,15.00341 8.8452,-36.89305 23.5957,-26.91406 27.3491,18.50221 35.5692,50.59149 65.5042,64.00543 28.0467,12.56779 29.6019,-10.49215 60.3942,-7.39801 l 37.51377,3.76953 c 14.5747,1.46453 64.2403,6.37763 78.3801,2.55227 102.3644,-27.69354 115.5049,-48.56413 204.1974,-106.69373 17.5687,-11.51459 -52.4569,7.12881 -44.3119,-12.23354 11.3576,-26.99935 48.0748,-32.35834 58.5534,-59.48211 10.9762,-28.41162 -15.0508,-29.12731 -12.6295,-59.70539 0,0 3.1221,-27.79619 3.3066,-41.75781 0.1262,-9.54883 -35.0079,-14.75913 -1.5059,-28.60938 33.502,-13.85026 9.5403,-73.10281 -8.4941,-104.55078 -46.4865,-81.06219 17.7726,-44.78179 -50.2891,-108.81054 -17.7146,-16.66493 -84.1842,-39.92929 -108.3069,-39.97809 z"
       sodipodi:nodetypes="csssssssssssssssssssssssssc" /><path
       style="fill:#333333;stroke-width:1.196;stroke-linecap:round"
       d="m 860.11853,576.0596 c 30.8234,-17.50641 54.5,-43.97361 80.3444,-67.59266 11.3255,-10.35031 26.0134,-15.60577 40.48625,-19.87155 5.1555,-1.51954 10.3932,-2.74816 15.5601,-4.2286 0.6409,-0.18366 1.1909,-0.86 1.85,-0.75992 10.31252,1.56608 21.52642,9.88996 27.83322,17.75707 11.4525,14.2856 8.0186,36.04243 4.1958,52.32964 -0.6463,2.75365 -2.5125,5.1047 -3.2706,7.82966 -3.4654,12.4568 -1.1748,14.85967 -7.747,25.88409 -1.3,2.18054 -3.818,3.39934 -5.3354,5.43444 -0.8453,1.13378 -0.9494,2.67807 -1.6353,3.91487 -5.8531,10.55437 -6.7735,9.36989 -17.64142,20.21828 -2.6898,2.68499 -5.3739,7.97281 -9.0355,6.95418 -8.78615,-2.44421 -17.12015,-9.53846 -26.09875,-10.90197 -0.4661,-0.0707 -0.1091,1.12586 -0.5451,1.30493 -1.5723,0.64578 -3.3093,0.85925 -5.0051,0.97465 -1.4872,0.10117 -3.0354,-0.76952 -4.4599,-0.33037 -7.5239,2.31959 -32.2244,25.05562 -37.232,30.4266 -5.6963,6.10978 -10.7303,12.81293 -15.7913,19.45846 -3.1933,4.19296 -4.2181,10.34458 -8.606,13.26418 -1.2411,0.82574 -2.9733,-0.22025 -4.4599,-0.33037 -2.9733,-0.22025 -6.0076,-0.0222 -8.9199,-0.66074 -4.1442,-0.90856 -7.8296,-3.27059 -11.7444,-4.90588 -16.2423,-6.78473 -15.0442,-8.44903 -24.3479,-22.43169 -2.4932,-3.74712 3.09,-11.06636 4.6911,-14.89939 2.1804,-5.2198 4.3608,-10.4396 6.5412,-15.65931 0.674,-1.61358 3.5911,-6.18397 3.2706,-7.82965 -0.2548,-1.30875 -1.7545,-2.38754 -1.5197,-3.70005 0.5811,-3.24831 2.5438,-6.08975 3.8157,-9.13458 5.8601,-14.02875 7.0207,-4.67279 4.8068,-22.51432 z"
       id="path2" /><path
       style="fill:#333333;stroke-width:1.196;stroke-linecap:round"
       d="m 1196.156,657.09907 c -8.5117,9.35248 -4.9296,23.22402 -10.7603,33.80614 -8.4092,17.34643 -16.4134,35.06062 -27.2391,51.07486 -7.1446,10.80365 -20.1542,14.87397 -29.4987,23.28799 -8.9878,6.7596 -20.0355,9.94656 -30.3378,14.13666 -6.4885,1.94383 -13.0461,5.49213 -19.9802,3.9486 -6.8735,0.83528 -13.5794,6.45681 -20.5488,2.5127 -8.7024,-5.63204 -14.6001,-16.01528 -13.2745,-26.57196 0.9786,-6.42581 0.5135,-13.33273 3.3016,-19.32895 5.6586,-6.11298 16.3058,-7.12936 19.1873,-15.75934 4.2499,-4.69072 10.2932,-7.66649 14.5146,-12.29342 23.2458,4.95574 16.3971,-15.90966 58.3388,-43.1945 6.3664,-5.5514 13.6196,-10.59825 21.8188,-12.91937 7.4967,3.57628 11.2175,-6.29159 18.2081,-3.57556 5.5578,1.15398 10.7822,3.46931 16.2702,4.87615 z"
       id="path3"
       sodipodi:nodetypes="ccccccccccccccc" /><path
       style="fill:#333333;stroke-width:1.196;stroke-linecap:round"
       d="m 895.73913,784.76992 c 7.9376,-9.84441 3.533,-23.4771 8.7209,-34.38875 7.3575,-17.81795 14.2889,-35.97881 24.1382,-52.61136 6.4862,-11.2113 19.2293,-16.05178 28.0543,-25.00918 8.5678,-7.28463 19.4053,-11.12609 29.43885,-15.92436 6.3608,-2.3281 12.6946,-6.26193 19.70852,-5.13554 6.8113,-1.24454 13.1693,-7.25676 20.362,-3.73618 9.0234,5.10192 15.531,15.11417 14.8386,25.7312 -0.5928,6.4728 0.2842,13.33958 -2.1406,19.4917 -5.2832,6.44021 -15.8506,8.09104 -18.2112,16.87779 -3.962,4.93631 -9.8167,8.2679 -13.754,13.13883 -23.50042,-3.55774 -15.41712,16.8611 -55.65337,46.60358 -6.0233,5.92192 -12.9619,11.3932 -21.0078,14.20015 -7.697,-3.1219 -10.8214,6.95069 -17.9619,4.65727 -5.6168,-0.81979 -10.9702,-2.81878 -16.5325,-3.89515 z"
       id="path3-5"
       sodipodi:nodetypes="ccccccccccccccc" /><path
       style="fill:#333333;stroke-width:1.196;stroke-linecap:round"
       d="m 1047.7263,433.85194 c 3.6681,-7.26877 15.9745,-0.20907 21.2132,-2.82842 2.3851,-1.19257 3.5519,-4.01968 5.6568,-5.65686 3.201,-2.48963 7.1717,-4.07048 9.8995,-7.07107 2.1272,-2.33989 2.997,-5.57869 4.2426,-8.48528 5.7095,-13.32206 4.2427,-22.47165 4.2427,-36.76955 0,-6.74935 1.6779,-15.91581 0,-22.62742 -0.9942,-3.97666 -10.9241,-6.4374 -14.1421,-8.48528 -0.3969,-0.25254 -12.1773,-10.18019 -14.1422,-9.89949 -10.9956,1.57079 -28.5137,5.88625 -36.7695,14.14213 -4.9993,4.99931 -7.1882,16.14162 -8.4853,22.62742 -0.2774,1.38675 0.3721,2.87826 0,4.24264 -1.0598,3.88576 -3.1829,7.42795 -4.2427,11.31371 -0.3721,1.36438 0.3068,2.8621 0,4.24264 -1.2295,5.53289 -5.8108,18.5388 -9.8995,22.62742 -2.4037,2.4037 -5.2603,4.58188 -8.48522,5.65685 -0.8986,0.29952 -16.959,0.0231 -14.1422,5.65685 1.481,2.96192 14.419,1.41422 15.5564,1.41422 7.19042,0 22.53032,-2.92558 28.28432,2.82843 1.2018,1.20185 1.6265,3.04079 2.8284,4.24264 1.0748,1.07483 7.0977,-0.3469 8.4853,0 3.3294,0.83235 6.5996,1.88561 9.8995,2.82842 z"
       id="path4" /><path
       style="fill:#333333;stroke-width:1.196;stroke-linecap:round"
       d="m 802.93513,570.97474 c 0,-3.77123 0.7396,-7.61571 0,-11.31371 -0.704,-3.52039 -2.7139,-6.65109 -4.2426,-9.89949 -11.0576,-23.49751 -24.0367,-34.6994 -46.669,-49.49748 -4.6215,-3.02169 -13.3831,-3.58753 -11.3137,-5.65685 1.054,-1.05409 3.0022,-0.58732 4.2426,-1.41421 6.3444,-4.22961 10.6714,-11.57101 18.3848,-14.14214 5.4318,-1.81062 20.1359,0 26.87,0 14.1555,0 21.4216,-2.13628 29.6985,11.31371 7.6309,12.40017 7.4841,34.93193 1.4142,48.08326 -1.7669,3.82829 -3.7712,7.54247 -5.6568,11.31371 -0.4714,0.94281 -1.4142,1.77433 -1.4142,2.82843 0,2.9428 1.9832,0.56903 2.8284,1.41421 0.4714,0.94281 0.9428,1.88562 1.4142,2.82843 0.4714,0.94281 0.6689,2.08307 1.4142,2.82842 0.3333,0.33334 1.0809,-0.33333 1.4142,0 1.1459,1.1459 -2.5092,14.14214 -8.4853,14.14214 -3.4318,0 -6.5996,-1.88562 -9.8995,-2.82843 z"
       id="path5" /><path
       style="fill:#333333;stroke-width:1.196;stroke-linecap:round"
       d="m 995.92418,781.98848 c 0,-3.77123 0.7396,-7.61571 0,-11.31371 -0.704,-3.52039 -2.7139,-6.65109 -4.2426,-9.89949 -11.0576,-23.49751 -24.03675,-34.6994 -46.66905,-49.49748 -4.6215,-3.02169 -13.3831,-3.58753 -11.3137,-5.65685 1.054,-1.05409 3.0022,-0.58732 4.2426,-1.41421 6.3444,-4.22961 10.6714,-11.57101 18.3848,-14.14214 5.4318,-1.81062 20.1359,0 26.87005,0 14.1555,0 21.42162,-2.13628 29.69852,11.31371 7.6309,12.40017 7.4841,34.93193 1.4142,48.08326 -1.7669,3.82829 -3.7712,7.54247 -5.6568,11.31371 -0.4714,0.94281 -1.4142,1.77433 -1.4142,2.82843 0,2.9428 1.9832,0.56903 2.8284,1.41421 0.4714,0.94281 0.9428,1.88562 1.4142,2.82843 0.4714,0.94281 0.6689,2.08307 1.4142,2.82842 0.3333,0.33334 1.0809,-0.33333 1.4142,0 1.1459,1.1459 -2.5092,14.14214 -8.4853,14.14214 -3.4318,0 -6.59962,-1.88562 -9.89952,-2.82843 z"
       id="path5-3" /><path
       style="fill:#333333;stroke-width:1.196;stroke-linecap:round"
       d="m 1169.5547,476.58997 c -1.4142,2.82842 -3.334,5.45637 -4.2427,8.48528 -2.8859,9.61987 8.5824,7.07107 14.1422,7.07107 2.357,0 4.714,0 7.071,0 0.4714,0 1.4143,0.4714 1.4143,0 0,-0.0553 -3.9661,0.0692 -4.2427,0 -5.3391,-1.33479 -4.2426,-1.21104 -4.2426,-5.65686 0,-11.14065 9.0435,-5.16374 -9.8995,-9.89949 z"
       id="path6" /><path
       style="fill:#333333;stroke-width:1.196;stroke-linecap:round"
       d="m 1180.8684,526.08744 c -10.1865,0.21571 -36.6617,-7.12503 -48.0833,-1.41422 -1.5202,0.76012 -1.9276,2.80133 -2.8284,4.24265 -5.3422,8.54747 -6.7896,13.85404 -4.2427,24.04163 0.8085,3.2338 6.6199,0.81792 9.8995,1.41421 2.4977,0.45412 4.5734,2.37431 7.0711,2.82843 5.3244,0.96807 15.9283,0.69976 21.2132,-1.41422 3.6891,-1.47563 6.9777,-12.55996 7.0711,-12.72792 0.6475,-1.16554 1.9955,-1.78727 2.8284,-2.82843 3.7076,-4.63448 4.5083,-8.1623 7.0711,-14.14213 z"
       id="path7" /><path
       style="fill:#333333;stroke-width:1.196;stroke-linecap:round"
       d="m 926.30983,323.8549 c -2.357,1.41422 -8.4852,1.88562 -7.071,4.24264 1.4142,2.35702 9.7664,-4.78171 7.071,-4.24264 -4.9785,0.99572 -9.3882,3.87414 -14.1421,5.65686 -2.7916,1.04684 -5.7876,1.55894 -8.4853,2.82842 -10.8849,5.12231 -19.8514,11.82006 -29.6985,18.38478 -6.2017,4.13449 -12.0828,8.74777 -18.3847,12.72792 -2.6737,1.68864 -6.5439,1.74649 -8.4853,4.24264 -2.994,3.84947 -2.5692,11.0671 2.8284,12.72792 9.3523,2.87762 20.1072,0.61505 29.6985,2.82843 10.9186,2.51969 24.8127,13.48769 36.7696,11.31371 3.3765,-0.61391 6.713,-1.55386 9.8994,-2.82843 7.8273,-3.13091 1.2249,-3.44084 5.6569,-5.65685 1.3333,-0.66667 2.9644,-0.64725 4.2426,-1.41422 2.9955,-1.79724 6.8795,-7.874 11.3138,-5.65685 7.653,3.82651 3.7452,29.77637 1.4142,36.76955 -1.8013,5.40371 -4.6623,10.39473 -7.0711,15.55635 -0.8915,1.9104 -1.1822,4.33988 -2.8284,5.65686 -0.4731,0.37848 -13.2771,1.30607 -14.1422,1.41421 -6.3764,0.79706 -12.1847,4.27906 -18.3847,5.65685 -3.2213,0.71584 -6.5997,0 -9.8995,0 -7.4215,0 -26.9013,-1.75996 -33.9412,0 -5.7619,1.4405 -3.1084,1.17018 -8.4852,4.24265 -11.862,6.77824 -18.8106,2.40259 -8.4853,12.72792 6.2578,6.25778 7.6377,8.48572 16.9705,12.72792 2.5916,1.17799 26.886,0 31.1127,0 8.6689,0 14.2168,-2.3736 22.6275,-4.24264 4.8857,-1.08572 9.303,1.00534 14.1421,-1.41422 4.9479,-2.47395 10.5414,-5.57861 14.1421,-9.89949 1.0881,-1.30573 1.5012,-3.18086 2.8285,-4.24264 1.164,-0.93124 2.9643,-0.64725 4.2426,-1.41421 6.7069,-4.02417 7.46,-12.60421 11.3137,-18.38478 0.2615,-0.39223 1.0809,0.33333 1.4142,0 1.3651,-1.36509 1.5204,-7.93737 2.8284,-9.8995 0.2615,-0.39223 1.2652,0.44722 1.4143,0 0.4472,-1.34164 -0.5253,-2.92957 0,-4.24264 1.4051,-3.5128 3.4426,-3.0713 4.2426,-7.07106 2.0773,-10.3864 1.4038,-17.04342 0,-26.87006 -0.4603,-3.22213 0.535,-6.68954 0,-9.8995 -0.7684,-4.61038 -3.159,-8.39354 -4.2426,-12.72792 -0.2287,-0.91466 0.2981,-1.934 0,-2.82843 -0.6325,-1.89736 -3.3483,-2.45378 -4.2427,-4.24264 -3.4119,-6.82388 -2.5622,-13.87593 -8.4853,-19.79899 -1.3511,-1.35116 -32.4455,0.9609 -36.7695,0 -1.6592,-0.36871 -2.8284,-1.88561 -4.2427,-2.82842"
       id="path8" /><path
       style="fill:#333333;stroke-width:1.196;stroke-linecap:round"
       d="m 1219.0662,545.56337 c 0.7064,-2.65641 4.7755,-7.26281 2.1191,-7.96921 -2.6564,-0.7064 -3.6778,10.23332 -2.1191,7.96921 2.879,-4.18191 4.0385,-9.31866 6.2082,-13.90887 1.2741,-2.69548 3.0673,-5.14959 4.119,-7.93943 4.2432,-11.25673 6.0126,-22.30785 8.5065,-33.87683 1.5707,-7.28616 2.5778,-14.69261 4.3278,-21.9378 0.7425,-3.0739 3.4794,-5.81091 3.134,-8.95424 -0.5326,-4.84755 -5.8643,-9.73092 -10.8942,-7.1634 -8.7153,4.44872 -14.857,13.56282 -23.281,18.65464 -9.5899,5.79646 -27.199,7.60293 -34.2649,17.49062 -1.9954,2.79218 -3.7349,5.79046 -5.1337,8.92431 -3.4361,7.69821 1.5175,3.3222 -0.1194,7.99914 -0.4925,1.407 -1.6764,2.52909 -2.0595,3.96968 -0.8978,3.37596 0.5475,10.44164 -4.1787,11.93903 -8.1567,2.5843 -23.426,-18.75851 -26.6239,-25.40016 -2.4709,-5.13216 -3.8941,-10.70624 -5.7605,-16.08779 -0.6908,-1.99177 -2.1743,-3.93759 -1.9103,-6.02916 0.076,-0.6011 8.6178,-10.18439 9.1632,-10.86451 4.0205,-5.01296 5.7633,-11.55691 9.2527,-16.86373 1.813,-2.75723 4.7358,-4.59653 7.1037,-6.89476 5.3255,-5.16889 20.5296,-17.47318 24.3555,-23.6392 3.1314,-5.0467 1.4156,-3.00463 3.134,-8.95418 3.791,-13.12553 11.8247,-14.82517 -2.7758,-15.04311 -8.8489,-0.13206 -11.3908,-0.76972 -21.0424,2.68622 -2.6801,0.95968 -19.2929,18.72543 -22.3259,21.66923 -6.2206,6.03767 -8.5485,11.6049 -13.2822,18.80393 -2.7497,4.18186 -7.3758,5.75789 -9.1631,10.86444 -1.8275,5.22135 -3.6789,11.34492 -3.2533,16.9533 0.1286,1.69481 1.1381,3.32808 0.9252,5.01442 -0.1867,1.47894 -1.6764,2.52902 -2.0595,3.96968 -2.01,7.55885 3.4254,14.24024 4.6861,21.07227 0.086,0.46359 -1.0078,0.51363 -1.0148,0.98496 -0.029,1.93032 4.4372,6.75462 4.8651,9.0736 0.086,0.46359 -1.2193,0.56027 -1.0148,0.98503 0.6135,1.2742 2.4173,1.73634 2.9549,3.04443 1.4383,3.49934 -0.3313,4.60159 1.8804,8.02893 5.7432,8.89987 10.8629,13.20774 18.7143,19.28143 2.5744,1.99156 4.2752,5.1729 6.8948,7.1037 3.7624,2.77314 8.1127,3.82287 11.909,6.17844 0.8012,0.49706 1.1331,1.59542 1.97,2.02963 1.7753,0.92099 4.1116,-0.57122 5.9993,0.0895 7.201,2.52038 11.5029,8.17259 19.8784,8.29757 1.9106,0.0286 22.6131,-23.28701 26.3851,-25.60905 1.4474,-0.89101 3.3429,-0.61683 5.0144,-0.92531"
       id="path8-5" /><path
       style="fill:#333333;stroke-width:1.196;stroke-linecap:round"
       d="m 784.88853,646.29559 c 26.0423,-1.14763 26.8701,9.5852 26.8701,31.1127 0,4.55214 0.4459,9.68267 0,14.14214 -0.4504,4.50367 -5.1862,13.66936 -2.8285,18.38477 1.2293,2.45855 3.0134,4.61253 4.2427,7.07107 0.2108,0.42164 -0.3681,1.11973 0,1.41422 4.3401,3.47213 14.1474,10.37178 19.799,11.3137 2.9235,0.48727 16.0756,-25.18695 14.1421,-29.69848 -5.146,-12.00743 -16.7118,-20.64143 -24.0416,-31.1127 -8.5247,-12.17815 -11.4999,-21.30627 -25.4559,-28.28427 -0.4216,-0.21082 -0.9428,0 -1.4142,0 -3.7712,1.88562 -8.0213,8.2908 -11.3137,5.65685 -3.8431,-3.0745 4.2426,-9.22052 4.2426,-14.14213"
       id="path9" /><path
       style="fill:#2a2a2a;fill-opacity:1;stroke-width:1.196;stroke-linecap:round"
       d="m 904.60203,586.97803 c 1.2003,-4.09648 1.6792,-8.47786 3.601,-12.28953 2.5957,-5.14821 29.8576,-23.54648 36.9016,-25.96672 3.2149,-1.10461 6.7297,-1.05763 10.0101,-1.94912 1.93,-0.52452 3.7,-1.51975 5.5501,-2.27958 3.7716,-0.468 7.6098,-0.55775 11.3149,-1.40402 0.4596,-0.10497 0.3634,-0.86995 0.5452,-1.30502 1.0516,-0.0716 2.1037,-0.29253 3.1549,-0.21472 1.4104,0.10448 2.53815,1.31214 3.91495,1.63529 5.0905,1.19483 9.5191,1.35594 13.0494,5.45099 2.2989,2.66675 -2.3316,7.26116 -2.5108,9.67968 -1.3164,17.77127 3.9878,-7.9835 1.7344,6.8551 -1.4971,9.8587 -8.5656,18.96667 -18.94635,19.67318 -2.8219,0.19206 -5.1154,-2.47524 -7.8297,-3.2706 -10.1676,-2.97912 -19.7523,-1.7859 -28.9399,3.23768 -0.4136,0.22616 -0.2633,0.92694 -0.5451,1.30493 -3.0945,4.15044 -7.5617,6.69911 -10.6707,10.86897 -0.8453,1.13378 -1.0902,2.60985 -1.6353,3.91487 -1.5252,2.42816 -2.7566,5.06777 -4.5755,7.28447 -13.3392,16.25651 1.1883,-1.73288 -7.9453,4.34433 -1.9803,1.31763 -1.2983,4.52579 -6.6403,4.88943 -3.3351,0.22697 -11.9571,-0.39682 -14.6847,-1.53621 -11.7623,-4.91333 -12.6625,-6.37713 -8.1435,-17.19542 2.232,-5.34344 2.6768,-5.64773 6.9706,-9.34931 1.795,-1.5474 5.5458,-4.31516 7.1855,-6.19436 0.3099,-0.35518 0.1101,-1.48662 0.5451,-1.30493 3.0757,1.28482 5.7263,3.41375 8.5894,5.12062 z"
       id="path10" /><path
       style="fill:#2a2a2a;fill-opacity:1;stroke-width:1.196;stroke-linecap:round"
       d="m 1032.1699,397.08239 c 2.5645,-15.38705 -0.2996,-1.92956 4.2426,-15.55635 0.9429,-3.29983 1.8857,-6.59966 2.8285,-9.89949 0,-1.41422 -0.343,-2.87066 0,-4.24264 1.8129,-7.25164 13.4305,0.7026 15.5563,2.82842 1.6667,1.66667 2.576,3.99019 4.2427,5.65686 0.7453,0.74535 2.357,0.4714 2.8284,1.41421 0.743,1.48601 1.1433,14.68403 0,16.97056 -0.6441,1.28812 -4.8964,5.14989 -5.6569,5.65686 -0.7844,0.52297 -3.4951,-0.66667 -2.8284,0 0.7454,0.74535 2.2437,0.53715 2.8284,1.41421 3.4233,5.13495 -7.5023,16.53931 -11.3137,12.72792 -2.4072,-2.40727 -0.6193,-4.30964 -2.8284,-7.07106 -2.9152,-3.64406 -6.5997,-6.59967 -9.8995,-9.8995 z"
       id="path11" /><path
       style="fill:#2a2a2a;fill-opacity:1;stroke-width:1.196;stroke-linecap:round"
       d="m 1086.2755,490.7443 c 20.8371,-3.45855 -24.2973,5.47861 11.3137,0 1.7191,-0.26448 15.5561,-7.07128 18.3847,-4.24265 2.0032,2.00321 2.6033,9.3613 0,11.31371 -2.6939,2.02044 -22.8065,8.30611 -26.87,4.24264 -0.3333,-0.33333 0.1143,-0.95688 0,-1.41421 -0.8324,-3.32941 -1.8856,-6.59966 -2.8284,-9.89949 z"
       id="path12" /><path
       style="fill:#2a2a2a;fill-opacity:1;stroke-width:1.196;stroke-linecap:round"
       d="m 1056.2755,646.33722 c 2.6004,-3.65331 8.2449,2.19199 11.3137,0 4.4522,-3.18013 7.6386,-11.03457 9.8995,-15.55634 6.3881,-12.77622 2.4343,-23.20691 4.2426,-36.76956 0.063,-0.47579 4.9787,-19.06291 4.2426,-19.79899 -1.1576,-1.15759 -2.3866,1.30376 -2.8284,1.41422 -5.4908,1.37271 -3.8264,-2.22961 -9.8995,1.41421 -2.9768,1.78608 -0.8097,2.42905 -1.4142,4.24264 -0.8028,2.40832 -2.6337,4.53995 -2.8284,7.07107 -0.3076,3.99886 1.3631,14.35344 4.2426,18.38477 -1.2175,8.46476 4.1662,1.33772 5.6569,2.82843 1.3333,1.33334 0,3.77124 0,5.65686 0,6.49162 -0.7593,12.07296 -5.6569,16.97056 -1.2018,1.20185 -3.0408,1.62658 -4.2426,2.82843 -0.3333,0.33333 0.3333,1.08088 0,1.41421 -1,1 -3.1784,-0.93127 -4.2427,0 -3.2708,2.86195 -5.6568,6.59966 -8.4852,9.89949 z"
       id="path13" /><path
       style="fill:#2a2a2a;fill-opacity:1;stroke-width:1.196;stroke-linecap:round"
       d="m 1082.3487,738.12852 c 4.4201,-0.75612 4.2994,7.36874 8.021,7.97898 5.3992,0.88533 13.1976,-2.43594 17.9894,-4.04719 13.5394,-4.55261 18.0925,-14.73596 28.9396,-23.07602 0.3802,-0.29288 16.9738,-10.00359 16.971,-11.04458 0,-1.63708 -2.6114,-0.75883 -3.0025,-0.9921 -4.8609,-2.89919 -1.1404,-4.27927 -8.0158,-5.979 -3.37,-0.83313 -2.2871,1.15105 -3.9947,2.01049 -2.2676,1.14123 -5.069,1.36122 -6.9921,3.01837 -3.0383,2.61809 -9.1564,11.13733 -9.958,16.02614 -6.8329,5.14253 2.0102,3.8866 2.0158,5.99477 0,1.88559 -2.6597,2.67366 -3.9895,4.01048 -4.5783,4.6023 -9.0528,8.02374 -15.979,8.04191 -1.6997,0.004 -3.303,-0.99135 -5.0026,-0.98685 -0.4714,10e-4 -0.526,1.00136 -0.9974,1.00261 -1.4142,0.004 -1.5966,-2.90179 -3.0079,-2.99216 -4.3372,-0.27773 -8.6648,0.68943 -12.9973,1.03415 z"
       id="path13-6" /><path
       style="fill:#2a2a2a;fill-opacity:1;stroke-width:1.196;stroke-linecap:round"
       d="m 1169.239,713.57214 c -4.4819,0.14592 -3.2537,-7.88648 -6.8572,-8.99883 -5.2279,-1.61378 -13.4065,0.61231 -18.3734,1.55464 -14.034,2.66255 -19.934,12.12937 -31.8177,18.91132 -0.4166,0.23826 -18.18,7.59391 -18.3193,8.62554 -0.2234,1.62177 2.4834,1.10807 2.839,1.39252 4.4199,3.53535 0.5459,4.39486 7.125,7.01685 3.2248,1.28518 2.4228,-0.8282 4.2317,-1.4466 2.4021,-0.82114 5.2073,-0.65681 7.3386,-2.03605 3.3671,-2.17902 10.5904,-9.78375 12.0516,-14.51745 7.4707,-4.16207 -1.461,-4.12455 -1.1789,-6.21376 0.2573,-1.86796 2.9996,-2.28573 4.4994,-3.4286 5.1635,-3.93453 10.063,-6.71341 16.9269,-5.78632 1.6843,0.22797 3.1368,1.43278 4.8211,1.66024 0.4672,0.0633 0.6577,-0.92022 1.1249,-0.85714 1.4015,0.18901 1.1857,3.09251 2.5715,3.37461 4.2587,0.86695 8.6778,0.49935 13.0168,0.74903 z"
       id="path13-6-2" /></g></svg>
