<?xml version="1.0" encoding="UTF-8" standalone="no"?>
<!-- Created with Inkscape (http://www.inkscape.org/) -->

<svg
   version="1.1"
   id="svg1"
   width="112"
   height="75"
   viewBox="0 0 112 75"
   sodipodi:docname="0.png"
   inkscape:version="1.4 (e7c3feb100, 2024-10-09)"
   xmlns:inkscape="http://www.inkscape.org/namespaces/inkscape"
   xmlns:sodipodi="http://sodipodi.sourceforge.net/DTD/sodipodi-0.dtd"
   xmlns="http://www.w3.org/2000/svg"
   xmlns:svg="http://www.w3.org/2000/svg">
  <defs
     id="defs1" />
  <sodipodi:namedview
     id="namedview1"
     pagecolor="#ffffff"
     bordercolor="#111111"
     borderopacity="1"
     inkscape:showpageshadow="0"
     inkscape:pageopacity="0"
     inkscape:pagecheckerboard="1"
     inkscape:deskcolor="#d1d1d1"
     showguides="false"
     inkscape:zoom="2.8284271"
     inkscape:cx="38.890873"
     inkscape:cy="54.270445"
     inkscape:window-width="1920"
     inkscape:window-height="1006"
     inkscape:window-x="0"
     inkscape:window-y="0"
     inkscape:window-maximized="1"
     inkscape:current-layer="g1" />
  <g
     inkscape:groupmode="layer"
     inkscape:label="Image"
     id="g1">
    <path
       id="path13"
       style="fill:#3a7068;fill-opacity:1;stroke:#3cb9be;stroke-width:0.377355;stroke-dasharray:none;stroke-opacity:1"
       inkscape:transform-center-x="0.40454832"
       inkscape:transform-center-y="-0.095743687"
       d="m 50.490319,47.226677 0.565962,4.277345 -1.452584,-3.692652 1.51117,6.824084 -1.734663,-5.184877 1.131118,7.178753 -1.563321,-6.05131 0.466332,4.637041 0.491583,4.920025 -1.133451,-4.774176 -1.14627,-4.409632 0.501307,6.41747 -1.273463,-7.204823 -0.103907,5.241262 -0.652499,-6.60376 -0.477652,3.536167 -0.390916,-4.29731 c 0.910051,-3.20165 3.424736,-3.64978 5.261246,-0.813608 z"
       sodipodi:nodetypes="ccccccccccccccccccc" />
    <path
       id="path13-8"
       style="fill:#3a7068;fill-opacity:1;stroke:#3cb9be;stroke-width:0.377355;stroke-dasharray:none;stroke-opacity:1"
       inkscape:transform-center-x="-0.40454868"
       inkscape:transform-center-y="-0.095743687"
       d="m 61.374725,47.13322 -0.565962,4.277345 1.452584,-3.692652 -1.51117,6.824084 1.734663,-5.184877 -1.131118,7.178753 1.563321,-6.05131 -0.466332,4.637041 -0.491583,4.920025 1.133451,-4.774176 1.14627,-4.409632 -0.501307,6.41747 1.273463,-7.204823 0.103907,5.241262 0.652499,-6.60376 0.477652,3.536167 0.390916,-4.29731 c -0.910051,-3.20165 -3.424736,-3.64978 -5.261246,-0.813608 z"
       sodipodi:nodetypes="ccccccccccccccccccc" />
    <path
       id="path13-8-3"
       style="fill:#3a7068;fill-opacity:1;stroke:#3cb9be;stroke-width:0.513807;stroke-dasharray:none;stroke-opacity:1"
       inkscape:transform-center-x="0.00063282"
       inkscape:transform-center-y="-0.081600927"
       d="m 52.288412,54.489978 0.221499,5.870618 0.952149,-4.506971 -0.312521,8.723234 1.138904,-7.356721 0.12848,9.894351 0.710204,-8.480296 0.437719,6.330529 0.468737,6.716125 0.426194,-6.667602 0.527016,-6.181272 0.799156,8.72814 0.05659,-9.961989 1.341651,7.010684 -0.638965,-9.012847 1.45217,4.636478 -0.461012,-5.857264 c -1.955784,-4.088329 -5.433635,-4.112987 -7.247956,0.114797 z"
       sodipodi:nodetypes="ccccccccccccccccccc" />
    <path
       id="path11"
       style="fill:#3a7068;fill-opacity:1;stroke:#3cb9be;stroke-width:0.364694;stroke-dasharray:none;stroke-opacity:1"
       inkscape:transform-center-x="0.07329473"
       inkscape:transform-center-y="-0.54629739"
       d="m 16.033169,39.333026 -0.252561,0.387802 1.803498,1.849452 -1.725289,-0.152651 1.336995,3.103334 -1.787768,-1.968976 0.446006,3.371929 -1.282645,-3.160163 -0.586585,2.56996 -0.370289,-3.34802 -1.432941,0.952047 0.659629,-2.472907 -0.347454,-0.184386 z" />
    <path
       id="path11-1"
       style="fill:#3a7068;fill-opacity:1;stroke:#3cb9be;stroke-width:0.364694;stroke-dasharray:none;stroke-opacity:1"
       inkscape:transform-center-x="0.07329473"
       inkscape:transform-center-y="-0.54629739"
       d="m 26.087506,37.729664 -0.252561,0.387802 1.803498,1.849452 -1.725289,-0.152651 1.336995,3.103334 -1.787768,-1.968976 0.446006,3.371929 -1.282645,-3.160163 -0.586585,2.56996 -0.370289,-3.34802 -1.432941,0.952047 0.659629,-2.472907 -0.347454,-0.184386 z" />
    <path
       id="path11-6"
       style="fill:#3a7068;fill-opacity:1;stroke:#3cb9be;stroke-width:0.364694;stroke-dasharray:none;stroke-opacity:1"
       inkscape:transform-center-x="0.07329473"
       inkscape:transform-center-y="-0.54629739"
       d="m 36.141843,36.216434 -0.252561,0.387802 1.803498,1.849452 -1.725289,-0.152651 1.336995,3.103334 -1.787768,-1.968976 0.446006,3.371929 -1.282645,-3.160163 -0.586585,2.56996 -0.370289,-3.34802 -1.432941,0.952047 0.659629,-2.472907 -0.347454,-0.184386 z" />
    <path
       id="path11-7"
       style="fill:#3a7068;fill-opacity:1;stroke:#3cb9be;stroke-width:0.364694;stroke-dasharray:none;stroke-opacity:1"
       inkscape:transform-center-x="-0.07329427"
       inkscape:transform-center-y="-0.54629739"
       d="m 96.323883,39.695753 0.252561,0.387802 -1.803498,1.849452 1.725289,-0.152651 -1.336995,3.103334 1.787768,-1.968976 -0.446006,3.371929 1.282645,-3.160163 0.586585,2.56996 0.370289,-3.34802 1.432939,0.952047 -0.659627,-2.472907 0.347454,-0.184386 z" />
    <path
       id="path11-1-4"
       style="fill:#3a7068;fill-opacity:1;stroke:#3cb9be;stroke-width:0.364694;stroke-dasharray:none;stroke-opacity:1"
       inkscape:transform-center-x="-0.07329427"
       inkscape:transform-center-y="-0.54629739"
       d="m 86.269546,38.092391 0.252561,0.387802 -1.803498,1.849452 1.725289,-0.152651 -1.336995,3.103334 1.787768,-1.968976 -0.446006,3.371929 1.282645,-3.160163 0.586585,2.56996 0.370289,-3.34802 1.432941,0.952047 -0.659629,-2.472907 0.347454,-0.184386 z" />
    <path
       id="path11-6-5"
       style="fill:#3a7068;fill-opacity:1;stroke:#3cb9be;stroke-width:0.364694;stroke-dasharray:none;stroke-opacity:1"
       inkscape:transform-center-x="-0.07329477"
       inkscape:transform-center-y="-0.54629739"
       d="m 76.215209,36.579161 0.252561,0.387802 -1.803498,1.849452 1.725289,-0.152651 -1.336995,3.103334 1.787768,-1.968976 -0.446006,3.371929 1.282645,-3.160163 0.586585,2.56996 0.370289,-3.34802 1.432941,0.952047 -0.659629,-2.472907 0.347454,-0.184386 z" />
    <path
       style="fill:#0000ff;stroke-width:5.174"
       d="M 0,40.313427 Z"
       id="path5" />
    <path
       id="path9"
       style="fill:#ffffff;fill-opacity:1;stroke:#bababa;stroke-width:1.203;stroke-dasharray:none;stroke-opacity:1"
       d="M 56,3.3420708 2.2535066,39.333026 l 4.7313115,2.166955 9.0483509,-2.166955 24.310765,-3.503494 5.638584,8.645327 3.366653,-0.03937 V 34.161198 l 4.107093,16.068462 5.117464,0.0032 4.077101,-16.071617 v 10.173494 l 3.494236,-0.05511 5.511001,-8.450049 24.310765,3.503494 9.048349,2.166955 4.73131,-2.166955 z"
       sodipodi:nodetypes="cccccccccccccccccc" />
    <path
       id="path14"
       style="fill:#3c3c3c;fill-opacity:1;stroke:#bababa;stroke-width:0.340307;stroke-dasharray:none;stroke-opacity:1"
       d="m 55.513862,10.839029 c -2.453974,-0.340733 -5.24807,0.452272 -7.931083,0.875 v 0 l 7.931088,-6.3370753 z"
       sodipodi:nodetypes="ccccc" />
    <path
       id="path14-0"
       style="fill:#3c3c3c;fill-opacity:1;stroke:#bababa;stroke-width:0.340307;stroke-dasharray:none;stroke-opacity:1"
       d="m 56.498283,10.839029 c 2.453974,-0.340734 5.24807,0.452272 7.931083,0.875 v 0 L 56.498278,5.3769537 Z"
       sodipodi:nodetypes="ccccc" />
    <path
       style="fill:none;fill-opacity:1;stroke:#e6e6e6;stroke-width:1.196;stroke-linecap:round;stroke-linejoin:miter;stroke-dasharray:none;stroke-opacity:1"
       d="m 5.7420283,39.628417 5.8431267,-3.447923 13.438912,-3.21164 4.144088,-6.242446 9.722718,-3.480273 2.65165,4.684583 10.482341,-6.629126 3.975134,10.817388 3.975134,-10.817388 10.482341,6.629126 2.65165,-4.684583 9.722718,3.480273 4.144088,6.242446 13.710361,3.489368 5.52466,3.236487"
       id="path15"
       sodipodi:nodetypes="ccccccccccccccc" />
    <text
       xml:space="preserve"
       style="font-size:3.58379px;font-family:'AR PL UMing CN';-inkscape-font-specification:'AR PL UMing CN, Normal';text-align:start;writing-mode:lr-tb;direction:ltr;text-anchor:start;fill:#e6e6e6;fill-opacity:1;stroke:none;stroke-width:0.146121;stroke-linecap:round;stroke-linejoin:miter;stroke-dasharray:none;stroke-opacity:1"
       x="17.13397"
       y="38.388451"
       id="text16"
       transform="rotate(-34.370271)"><tspan
         sodipodi:role="line"
         id="tspan16"
         x="17.13397"
         y="38.388451"
         style="font-style:normal;font-variant:normal;font-weight:bold;font-stretch:normal;font-size:3.58379px;font-family:FreeSerif;-inkscape-font-specification:'FreeSerif, Bold';font-variant-ligatures:normal;font-variant-caps:normal;font-variant-numeric:normal;font-variant-east-asian:normal;fill:#e6e6e6;fill-opacity:1;stroke:none;stroke-width:0.146121;stroke-opacity:1">NEO B2</tspan></text>
    <text
       xml:space="preserve"
       style="font-size:4.24513px;font-family:'AR PL UMing CN';-inkscape-font-specification:'AR PL UMing CN, Normal';text-align:start;writing-mode:lr-tb;direction:ltr;text-anchor:start;fill:#e6e6e6;fill-opacity:1;stroke:none;stroke-width:0.173085;stroke-linecap:round;stroke-linejoin:miter;stroke-dasharray:none;stroke-opacity:1"
       x="64.037689"
       y="-22.137659"
       id="text16-0"
       transform="rotate(32.307791)"><tspan
         sodipodi:role="line"
         id="tspan16-2"
         x="64.037689"
         y="-22.137659"
         style="font-style:normal;font-variant:normal;font-weight:bold;font-stretch:normal;font-size:4.24513px;font-family:FreeSerif;-inkscape-font-specification:'FreeSerif, Bold';font-variant-ligatures:normal;font-variant-caps:normal;font-variant-numeric:normal;font-variant-east-asian:normal;fill:#e6e6e6;fill-opacity:1;stroke:none;stroke-width:0.173085;stroke-opacity:1">00001</tspan></text>
  </g>
</svg>
